<svg xmlns="http://www.w3.org/2000/svg" viewBox="0 0 121.64 126.04"><defs><style>.cls-1{fill:#7c7c7c;}</style></defs><g id="Calque_2" data-name="Calque 2"><g id="Calque_1-2" data-name="Calque 1"><path class="cls-1" d="M34.76,49.57A16.25,16.25,0,0,1,18.54,33.34V28.71h4.63v4.63a11.59,11.59,0,0,0,23.18,0V21.76a9.28,9.28,0,0,0-9.27-9.27H30.13A19.62,19.62,0,0,1,19.28,9.06a9.39,9.39,0,0,0-.74,3.43c0,2.78.9,9.27,9.27,9.27v4.63c-10.26,0-13.9-7.49-13.9-13.9a15.76,15.76,0,0,1,2.75-8.3L18.25,2,20.18,3.9a15.56,15.56,0,0,0,10,4h7A13.92,13.92,0,0,1,51,21.76V33.34A16.24,16.24,0,0,1,34.76,49.57"/><rect class="cls-1" x="18.54" y="22.25" width="4.64" height="8.78"/><path class="cls-1" d="M4.64,126H0V83.47a29.82,29.82,0,0,1,17.45-27.1l8-3.66V45.39h4.64v10.3L19.37,60.58A25.19,25.19,0,0,0,4.64,83.47Z"/><rect class="cls-1" x="11.59" y="84.33" width="4.64" height="41.72"/><path class="cls-1" d="M60.26,126H55.62V73.34l18.15,10.6a3.42,3.42,0,0,0,1.55.39A3.47,3.47,0,0,0,78.56,82L87.6,55l1.56-.1c.07,0,8.18-.63,8.18-5.32V47.25H102v2.32C102,56,95.69,58.63,91,59.34l-8.1,24.24A8.14,8.14,0,0,1,75.32,89a8,8,0,0,1-3.81-1L60.26,81.41Z"/><path class="cls-1" d="M73,74.39l-10.42-10a17.59,17.59,0,0,0-8.2-4.66L39.4,56V45.39H44v7l11.44,2.86A22.18,22.18,0,0,1,65.79,61.1l5.29,5.06L77,50.23c.58-1.58,2-5.3,6.43-5.3v4.64c-.77,0-1.24,0-2.09,2.28Z"/><polygon class="cls-1" points="113.56 49.57 71.84 49.57 71.84 21 76.48 21 76.48 44.93 108.92 44.93 108.92 21.1 113.56 21.1 113.56 49.57"/><polygon class="cls-1" points="63.82 27.71 67.03 31.06 92.69 6.43 118.42 31.25 121.64 27.91 92.7 0 63.82 27.71"/><polygon class="cls-1" points="90.38 38.94 82.81 31.37 86.09 28.09 90.38 32.38 99.46 23.31 102.74 26.59 90.38 38.94"/><path class="cls-1" d="M34.76,61.15c-5.2,0-9.27-3-9.27-6.95h4.64c0,.95,1.8,2.32,4.63,2.32s4.64-1.37,4.64-2.32H44c0,3.9-4.07,6.95-9.27,6.95"/></g></g></svg>