<svg xmlns="http://www.w3.org/2000/svg" viewBox="0 0 125.14 124.19"><defs><style>.cls-1{fill:#7c7c7c;}</style></defs><g id="Calque_2" data-name="Calque 2"><g id="Calque_1-2" data-name="Calque 1"><rect class="cls-1" x="46.35" y="20.97" width="4.64" height="10.51"/><path class="cls-1" d="M34.76,50A16.24,16.24,0,0,1,18.54,33.81V19.9A13.92,13.92,0,0,1,32.44,6h7c8.09,0,12.11-3.81,12.28-4l2.09-2,1.52,2.48a20,20,0,0,1,2.65,9.09c0,9-8.15,13-16.22,13V19.9c1.18,0,11.58-.23,11.58-8.33a12.62,12.62,0,0,0-.9-4.36,24.69,24.69,0,0,1-13,3.42h-7a9.28,9.28,0,0,0-9.27,9.27V33.81A11.6,11.6,0,0,0,34.76,45.39c6.39,0,11.59-5.46,11.59-12.17v-4H51v4C51,42.49,43.71,50,34.76,50"/><rect class="cls-1" x="13.16" y="75.37" width="19.07" height="4.63" transform="translate(-58.23 76.62) rotate(-72.96)"/><path class="cls-1" d="M60.26,112.6H55.62V73A13.25,13.25,0,0,0,49,61.47L39.4,56V45.76H44v7.56l7.23,4.13a17.89,17.89,0,0,1,9,15.5Z"/><rect class="cls-1" x="11.59" y="104.07" width="4.64" height="20.12"/><rect class="cls-1" x="46.35" y="70.78" width="4.64" height="53.41"/><rect class="cls-1" x="48.67" y="110.28" width="76.48" height="4.64"/><polygon class="cls-1" points="39.4 70.89 23.53 70.89 21.1 56.31 25.67 55.55 27.45 66.25 39.4 66.25 39.4 70.89"/><rect class="cls-1" x="29.79" y="68.39" width="37.89" height="4.63" transform="translate(-35.79 55.52) rotate(-45.24)"/><path class="cls-1" d="M60.35,52.25a1.67,1.67,0,0,0,.68.1c3.41,0,8.5-5.2,8.5-8.69,0-.47,0-.58-.62-.58-3.48,0-8.65,5.11-8.65,8.55a1.43,1.43,0,0,0,.09.62M61,57c-3.34,0-5.41-2-5.41-5.35,0-6,7.2-13.19,13.29-13.19a5,5,0,0,1,5.25,5.22C74.16,49.76,67,57,61,57"/><path class="cls-1" d="M70.06,63.93a11.17,11.17,0,0,1-7.82-3.23l-5.17-5.18,3.27-3.28,5.18,5.18a6.42,6.42,0,0,0,11-4.54,6.37,6.37,0,0,0-1.88-4.53l-5.17-5.17,3.28-3.28,5.17,5.17a11.05,11.05,0,0,1-7.82,18.86"/><rect class="cls-1" x="92.7" y="59.3" width="4.64" height="6.95"/><rect class="cls-1" x="64.89" y="77.84" width="60.26" height="4.64"/><path class="cls-1" d="M120.51,112.6h-4.63V80.16a11.6,11.6,0,0,0-11.59-11.59H85.75A11.6,11.6,0,0,0,74.16,80.16V112.6H69.53V80.16A16.24,16.24,0,0,1,85.75,63.93h18.54a16.25,16.25,0,0,1,16.22,16.23Z"/><rect class="cls-1" x="106.6" y="87.11" width="4.64" height="9.27"/><rect class="cls-1" x="106.6" y="101.01" width="4.64" height="4.64"/><path class="cls-1" d="M97.15,47.82l-4.58-.74a9.91,9.91,0,0,0,.13-1.69,8.73,8.73,0,0,0-1.93-5.66,13.36,13.36,0,0,1-2.71-8.24,13.36,13.36,0,0,1,2.71-8.24,8.76,8.76,0,0,0,1.93-5.67h4.63a13.36,13.36,0,0,1-2.7,8.24,8.76,8.76,0,0,0-1.93,5.67,8.73,8.73,0,0,0,1.93,5.66,13.36,13.36,0,0,1,2.7,8.24,15.59,15.59,0,0,1-.18,2.43"/><path class="cls-1" d="M105.24,55.19,101.16,53c.37-.69.78-1.31,1.2-1.94a9.26,9.26,0,0,0,0-11.32,13.3,13.3,0,0,1-2.71-8.24,12.17,12.17,0,0,1,2.94-8.33c.35-.46.7-.93,1-1.46l3.93,2.45c-.4.65-.82,1.22-1.24,1.78a7.74,7.74,0,0,0-2,5.56,8.73,8.73,0,0,0,1.93,5.66,13.92,13.92,0,0,1,0,16.48c-.34.5-.68,1-1,1.56"/><path class="cls-1" d="M34.76,61.62c-5.2,0-9.27-3.06-9.27-7h4.64c0,1,1.8,2.32,4.63,2.32s4.64-1.37,4.64-2.32H44c0,3.9-4.07,7-9.27,7"/><path class="cls-1" d="M9.27,108A9.28,9.28,0,0,1,0,98.7a9.6,9.6,0,0,1,.26-2.13L7,67.4a17.09,17.09,0,0,1,12-12.61l6.55-1.87V45.85h4.64V56.41l-9.92,2.84a12.42,12.42,0,0,0-8.72,9.19L4.77,97.62a5,5,0,0,0-.13,1.08,4.63,4.63,0,0,0,6.68,4.12L32.91,91.31a3.46,3.46,0,0,0-1.69-6.52,3.82,3.82,0,0,0-1.28.27L13.07,92.21l-1.81-4.27,16.89-7.16a8.41,8.41,0,0,1,3.07-.62A8.09,8.09,0,0,1,35.09,95.4L13.44,106.94a9.24,9.24,0,0,1-4.17,1"/></g></g></svg>