<svg xmlns="http://www.w3.org/2000/svg" viewBox="0 0 125.15 125.15"><defs><style>.cls-1{fill:#7c7c7c;}</style></defs><g id="Calque_2" data-name="Calque 2"><g id="Calque_1-2" data-name="Calque 1"><path class="cls-1" d="M62.57,48.67a4.64,4.64,0,0,0-4.63,4.63v2.32a4.64,4.64,0,0,0,9.27,0V53.3a4.64,4.64,0,0,0-4.64-4.63m0,16.22a9.28,9.28,0,0,1-9.27-9.27V53.3a9.27,9.27,0,0,1,18.54,0v2.32a9.28,9.28,0,0,1-9.27,9.27"/><path class="cls-1" d="M76.48,83.43H71.84V71.84a7,7,0,0,0-7-7H60.26a7,7,0,0,0-7,7V83.43H48.67V71.84A11.6,11.6,0,0,1,60.26,60.25h4.63A11.6,11.6,0,0,1,76.48,71.84Z"/><path class="cls-1" d="M95,60.25a4.56,4.56,0,0,1-3-1.12l-19-16.59,3-3.49,19,16.57L99.65,51,62.55,18.55,25.49,51l4.64,4.61L46.61,41.18l3,3.49L33.14,59.11a4.65,4.65,0,0,1-6.29-.21l-4.63-4.64A4.56,4.56,0,0,1,20.86,51a4.62,4.62,0,0,1,1.57-3.45L59.55,15.06a4.65,4.65,0,0,1,6,0l37.1,32.47a4.58,4.58,0,0,1,.23,6.73L98.29,58.9A4.59,4.59,0,0,1,95,60.25"/><rect class="cls-1" x="65.16" y="32.62" width="4.64" height="3.93" transform="translate(-2.97 62.63) rotate(-48.85)"/><path class="cls-1" d="M92.7,92.7H32.45a4.64,4.64,0,0,1-4.64-4.63V57.94h4.64V88.07H92.7V57.94h4.64V88.07A4.64,4.64,0,0,1,92.7,92.7"/><path class="cls-1" d="M111.31,96.16l-3.53-3A51.85,51.85,0,0,0,120.51,59.1c0-30-26-54.46-57.94-54.46A59.76,59.76,0,0,0,23,19.35L19.9,15.87A64.44,64.44,0,0,1,62.57,0c34.5,0,62.58,26.51,62.58,59.1a57.22,57.22,0,0,1-13.84,37.06"/><path class="cls-1" d="M101.68,105.23l-2.79-3.71c1.18-.89,2.12-1.65,3.24-2.64l3.07,3.47c-1.21,1.07-2.23,1.91-3.52,2.88"/><path class="cls-1" d="M18.54,125.15a4.64,4.64,0,0,1-4.64-4.64l0-.36,2-21.71A56.53,56.53,0,0,1,8.52,29.3l3.94,2.44A52,52,0,0,0,4.63,59.1,52.51,52.51,0,0,0,20,96l.75.77-2.16,23.77L38.38,108.6l1.08.44a61.22,61.22,0,0,0,53.66-3.66l2.34,4a65.92,65.92,0,0,1-56.68,4.38l-17.9,10.7a4.49,4.49,0,0,1-2.34.69"/><path class="cls-1" d="M16.28,26.34l-3.61-2.9c1-1.23,2-2.44,3.11-3.58L19.15,23c-1,1.05-1.95,2.16-2.87,3.3"/></g></g></svg>